# xmcd
#
# Track frame offsets: 
#        182
#        16470
#        32952
#        49472
#        71552
#        88687
#        106172
#        125905
#        139470
#        156617
#
# Disc length: 2277 seconds
#
# Revision: 0
# Processed by: cddbd v1.5.2PL0 Copyright (c) Steve Scherf et al.
# Submitted via: ExactAudioCopy v0.95b4
#
DISCID=9a08e30a
DTITLE=Various Artist - Super Hits Series - Volume 4
DYEAR=2000
DGENRE=Country
TTITLE0=Michael Peterson - From Here To Eternity
TTITLE1=Paul Brandt - I Do
TTITLE2=Brady Seals - She
TTITLE3=Anita Cochran (Duet with Stever Wariner) - What If I Said
TTITLE4=Travis Tritt - Anymore
TTITLE5=Dwight Yoakam - Two Doors Down
TTITLE6=Randy Travis - Reasons I Cheat
TTITLE7=David Ball - When The Thought Of You Catches Up With Me
TTITLE8=Chad Brock - I Wonder Where Love Goes
TTITLE9=The Lynns - Nights Like These
EXTD=
EXTT0=
EXTT1=
EXTT2=
EXTT3=
EXTT4=
EXTT5=
EXTT6=
EXTT7=
EXTT8=
EXTT9=
PLAYORDER=
